<mxfile host="app.diagrams.net" modified="2024-05-28T05:24:02.557Z" agent="Mozilla/5.0 (Macintosh; Intel Mac OS X 10_15_7) AppleWebKit/537.36 (KHTML, like Gecko) Chrome/125.0.0.0 Safari/537.36" version="24.4.9" etag="PZJqM-b0-ZbhSTApqB5m" type="github">
  <diagram name="Page-1" id="_WkdWOfoegeeSF5dApq4">
    <mxGraphModel>
      <root>
        <mxCell id="0" />
        <mxCell id="1" parent="0" />
      </root>
    </mxGraphModel>
  </diagram>
</mxfile>
